<?xml version="1.0" encoding="utf-8"?>
<!-- Generator: Adobe Illustrator 22.1.0, SVG Export Plug-In . SVG Version: 6.00 Build 0)  -->
<svg version="1.1" id="Слой_1" xmlns="http://www.w3.org/2000/svg" xmlns:xlink="http://www.w3.org/1999/xlink" x="0px" y="0px"
	 viewBox="0 0 886 1093" style="enable-background:new 0 0 886 1093;" xml:space="preserve">
<style type="text/css">
	.st0{filter:url(#Adobe_OpacityMaskFilter);}
	.st1{filter:url(#Adobe_OpacityMaskFilter_1_);}
	.st2{mask:url(#SVGID_1_);fill:url(#SVGID_2_);}
	.st3{fill:url(#SVGID_3_);}
	.st4{filter:url(#Adobe_OpacityMaskFilter_2_);}
	.st5{filter:url(#Adobe_OpacityMaskFilter_3_);}
	.st6{mask:url(#SVGID_4_);fill:url(#SVGID_5_);}
	.st7{fill:url(#SVGID_6_);}
</style>
<g>
	<defs>
		<filter id="Adobe_OpacityMaskFilter" filterUnits="userSpaceOnUse" x="0" y="1067" width="885.7" height="24.7">
			<feFlood  style="flood-color:white;flood-opacity:1" result="back"/>
			<feBlend  in="SourceGraphic" in2="back" mode="normal"/>
		</filter>
	</defs>
	<mask maskUnits="userSpaceOnUse" x="0" y="1067" width="885.7" height="24.7" id="SVGID_1_">
		<g class="st0">
			<defs>
				<filter id="Adobe_OpacityMaskFilter_1_" filterUnits="userSpaceOnUse" x="0" y="1067" width="885.7" height="24.7">
					<feFlood  style="flood-color:white;flood-opacity:1" result="back"/>
					<feBlend  in="SourceGraphic" in2="back" mode="normal"/>
				</filter>
			</defs>
			<mask maskUnits="userSpaceOnUse" x="0" y="1067" width="885.7" height="24.7" id="SVGID_1_">
				<g class="st1">
				</g>
			</mask>
			<linearGradient id="SVGID_2_" gradientUnits="userSpaceOnUse" x1="0" y1="1079.394" x2="885.6609" y2="1079.394">
				<stop  offset="0" style="stop-color:#FFFFFF"/>
				<stop  offset="0.8171" style="stop-color:#2F2F2F"/>
				<stop  offset="1" style="stop-color:#000000"/>
			</linearGradient>
			<polygon class="st2" points="885.7,1091.8 70.7,1091.8 50.5,1071.5 0,1071.5 0,1067 52.4,1067 72.6,1087.3 885.7,1087.3 			"/>
		</g>
	</mask>
	<linearGradient id="SVGID_3_" gradientUnits="userSpaceOnUse" x1="0" y1="1079.394" x2="885.6609" y2="1079.394">
		<stop  offset="0" style="stop-color:#F1ECF4"/>
		<stop  offset="0.8171" style="stop-color:#F3EDF5"/>
		<stop  offset="1" style="stop-color:#F5EDF4"/>
	</linearGradient>
	<polygon class="st3" points="885.7,1091.8 70.7,1091.8 50.5,1071.5 0,1071.5 0,1067 52.4,1067 72.6,1087.3 885.7,1087.3 	"/>
</g>
<g>
	<defs>
		<filter id="Adobe_OpacityMaskFilter_2_" filterUnits="userSpaceOnUse" x="31.6" y="0" width="604.9" height="616.6">
			<feFlood  style="flood-color:white;flood-opacity:1" result="back"/>
			<feBlend  in="SourceGraphic" in2="back" mode="normal"/>
		</filter>
	</defs>
	<mask maskUnits="userSpaceOnUse" x="31.6" y="0" width="604.9" height="616.6" id="SVGID_4_">
		<g class="st4">
			<defs>
				<filter id="Adobe_OpacityMaskFilter_3_" filterUnits="userSpaceOnUse" x="31.6" y="0" width="604.9" height="616.6">
					<feFlood  style="flood-color:white;flood-opacity:1" result="back"/>
					<feBlend  in="SourceGraphic" in2="back" mode="normal"/>
				</filter>
			</defs>
			<mask maskUnits="userSpaceOnUse" x="31.6" y="0" width="604.9" height="616.6" id="SVGID_4_">
				<g class="st5">
				</g>
			</mask>
			<linearGradient id="SVGID_5_" gradientUnits="userSpaceOnUse" x1="31.6372" y1="308.323" x2="636.5666" y2="308.323">
				<stop  offset="0" style="stop-color:#FFFFFF"/>
				<stop  offset="0.8171" style="stop-color:#2F2F2F"/>
				<stop  offset="1" style="stop-color:#000000"/>
			</linearGradient>
			<polygon class="st6" points="36.1,616.6 31.6,616.6 31.6,30.7 363.1,30.7 393.8,0 636.6,0 636.6,4.5 395.7,4.5 365,35.2 
				36.1,35.2 			"/>
		</g>
	</mask>
	<linearGradient id="SVGID_6_" gradientUnits="userSpaceOnUse" x1="31.6372" y1="308.323" x2="636.5666" y2="308.323">
		<stop  offset="0" style="stop-color:#F1ECF4"/>
		<stop  offset="0.8171" style="stop-color:#F3EDF5"/>
		<stop  offset="1" style="stop-color:#F5EDF4"/>
	</linearGradient>
	<polygon class="st7" points="36.1,616.6 31.6,616.6 31.6,30.7 363.1,30.7 393.8,0 636.6,0 636.6,4.5 395.7,4.5 365,35.2 36.1,35.2 
			"/>
</g>
</svg>
