<svg xmlns="http://www.w3.org/2000/svg" viewBox="0 0 753.79 147.64"><defs><style>.a{fill:#fff;}</style></defs><title>logo</title><path class="a" d="M485.32,99.35l7.87-19.84L501,99.35ZM484,56.49l-29.7,70.25h20.33l5-12.45h26.9l5.09,12.45h20.72L502.66,56.49Zm124.68,70.25h19.43V57H608.71ZM583.2,92q0,8.48-5.31,13c-3.52,3-8.2,4.59-14,4.59H556V74.13h7.91c5.79,0,10.47,1.55,14,4.64s5.31,7.43,5.31,13Zm9.42-25.31a35.6,35.6,0,0,0-12.36-7.13A50.91,50.91,0,0,0,563.56,57H536.67v69.75h26.5A49.83,49.83,0,0,0,580,124.1a35.76,35.76,0,0,0,12.52-7.32,31.39,31.39,0,0,0,7.76-11.11,35.76,35.76,0,0,0,2.7-14v-.2a35.78,35.78,0,0,0-2.64-13.9,30.5,30.5,0,0,0-7.67-10.91M741.33,86v14.15h13.75v8.47a20,20,0,0,1-11.21,2.89,19.41,19.41,0,0,1-7.64-1.45,18.27,18.27,0,0,1-6-4,17.33,17.33,0,0,1-4-6.12,21.08,21.08,0,0,1-1.4-7.77V92a19.92,19.92,0,0,1,1.39-7.47,19.43,19.43,0,0,1,3.8-6.08,17.18,17.18,0,0,1,5.63-4.08,16.44,16.44,0,0,1,7-1.5,22.88,22.88,0,0,1,9.11,1.69,30.93,30.93,0,0,1,7.72,4.89l11.36-13.65a44,44,0,0,0-12.3-7.48,42.86,42.86,0,0,0-16-2.69,39.86,39.86,0,0,0-15,2.79,35.36,35.36,0,0,0-11.86,7.73,36,36,0,0,0-10.61,25.75v.2a36.23,36.23,0,0,0,2.88,14.6,34.4,34.4,0,0,0,8,11.4,35.51,35.51,0,0,0,12,7.43,41.93,41.93,0,0,0,15.09,2.64,45.17,45.17,0,0,0,17.13-3.09,50.24,50.24,0,0,0,13.16-7.68V86Zm-60.09,7.88L652.48,57H634.41v69.75h19V88.49l29.85,38.25h17V57h-19ZM429.93,82.2a7.5,7.5,0,0,1-2.69,6c-1.8,1.5-4.37,2.25-7.68,2.25H406.8V73.74h12.66a12.77,12.77,0,0,1,7.67,2,7.22,7.22,0,0,1,2.8,6.23Zm15.54,12.16c2.59-3.52,3.87-8,3.87-13.35v-.2q0-10.25-6.17-16.24A23.16,23.16,0,0,0,434.11,59a40.82,40.82,0,0,0-13.66-2h-33v69.75H406.8V105.62h8.48l14,21.12h22.33L435,102.43a24.54,24.54,0,0,0,10.47-8.07M321.2,73.93h20.93v52.81h19.33V73.93h20.92V57H321.2ZM279,84,262.36,57H241.94v69.75h19V86.89L278.65,114h.4l17.79-27.31v40.06h19.22V57H295.64Z" transform="translate(-19.62 -18.05)"/><polygon class="a" points="130.65 123.54 130.65 78.89 91.97 101.22 130.65 123.54"/><path class="a" d="M197.7,22.5a4.46,4.46,0,0,0-4.46-4.45,4.41,4.41,0,0,0-2.17.56h0L153.19,40.48l-44.5,25.69h0L64.14,40.48,26.27,18.6h0a4.47,4.47,0,0,0-6.63,3.89l0,43.67v51.4l0,43.67a4.45,4.45,0,0,0,6.63,3.88v0l35-20.17V91.88a2.93,2.93,0,0,1,4.39-2.53l43.06,24.86,43.06-24.86a2.93,2.93,0,0,1,4.39,2.53V145l34.95,20.17v0a4.45,4.45,0,0,0,6.63-3.88l0-43.67V66.17Z" transform="translate(-19.62 -18.05)"/><polygon class="a" points="47.45 123.54 86.13 101.22 47.45 78.89 47.45 123.54"/></svg>