<?xml version="1.0" encoding="utf-8"?>
<!-- Generator: Adobe Illustrator 22.1.0, SVG Export Plug-In . SVG Version: 6.00 Build 0)  -->
<svg version="1.1" id="Слой_1" xmlns="http://www.w3.org/2000/svg" xmlns:xlink="http://www.w3.org/1999/xlink" x="0px" y="0px"
	 viewBox="0 0 100 100" style="enable-background:new 0 0 100 100;" xml:space="preserve">
<style type="text/css">
	.st0{fill:url(#SVGID_1_);}
	.st1{fill:url(#SVGID_2_);}
	.st2{fill:url(#SVGID_3_);}
	.st3{fill:#EBDAEA;}
	.st4{fill:#F5EDF4;}
	.st5{fill:url(#SVGID_4_);}
	.st6{fill:url(#SVGID_5_);}
	.st7{fill:url(#SVGID_6_);}
	.st8{fill:url(#SVGID_7_);}
</style>
<g>
	<g>
		<g>
			<linearGradient id="SVGID_1_" gradientUnits="userSpaceOnUse" x1="52.7078" y1="3.276" x2="52.7078" y2="96.0601">
				<stop  offset="0" style="stop-color:#BBA2CA"/>
				<stop  offset="1" style="stop-color:#CDA3CA"/>
			</linearGradient>
			<path class="st0" d="M81.9,4.7H34.8c-0.7,0-1.4,0.3-1.9,0.8L16,22.4c-0.5,0.5-0.8,1.2-0.8,1.9v62.1c0,4.6,3.7,8.3,8.3,8.3h58.4
				c4.6,0,8.3-3.7,8.3-8.3V13C90.2,8.4,86.5,4.7,81.9,4.7L81.9,4.7z M81.9,4.7"/>
			<linearGradient id="SVGID_2_" gradientUnits="userSpaceOnUse" x1="71.4489" y1="4.6917" x2="71.4489" y2="97.3608">
				<stop  offset="0" style="stop-color:#D6C7DF"/>
				<stop  offset="1" style="stop-color:#E1C8DF"/>
			</linearGradient>
			<path class="st1" d="M81.9,4.7H52.7v90h29.2c4.6,0,8.3-3.7,8.3-8.3V13C90.2,8.4,86.5,4.7,81.9,4.7L81.9,4.7z M81.9,4.7"/>
			<linearGradient id="SVGID_3_" gradientUnits="userSpaceOnUse" x1="25.1097" y1="4.6093" x2="25.1097" y2="97.2784">
				<stop  offset="0" style="stop-color:#D6C7DF"/>
				<stop  offset="1" style="stop-color:#E1C8DF"/>
			</linearGradient>
			<path class="st2" d="M32,24.5c1.7,0,3-1.4,3-3V4.7h-0.2c-0.7,0-1.4,0.3-1.9,0.8L16,22.4c-0.5,0.5-0.8,1.2-0.8,1.9v0.2H32z
				 M32,24.5"/>
		</g>
		<g>
			<path class="st3" d="M34.5,65.2l-0.9,3.7c0.1,0,2.2,0.5,5.5,0.5c3.5,0,8.4-0.6,13.6-2.8v-4.1C43.5,67.2,35.1,65.3,34.5,65.2z"/>
			<path class="st4" d="M73.6,43.6l-3.5-1.5c-4.8,11.3-11.3,17.3-17.4,20.4v4.1C60,63.4,68,56.8,73.6,43.6z"/>
			<g>
				
					<rect x="30.4" y="30" transform="matrix(0.7071 -0.7071 0.7071 0.7071 -17.5576 34.6692)" class="st3" width="5.3" height="17.1"/>
				
					<rect x="24.5" y="35.9" transform="matrix(0.7071 -0.7071 0.7071 0.7071 -17.5576 34.6692)" class="st3" width="17.1" height="5.3"/>
			</g>
			<g>
				<g>
					
						<rect x="69" y="69.3" transform="matrix(0.7071 -0.7071 0.7071 0.7071 -34.0611 73.4431)" class="st4" width="5.3" height="17.1"/>
					
						<rect x="63.1" y="75.2" transform="matrix(0.7071 -0.7071 0.7071 0.7071 -34.0611 73.4431)" class="st4" width="17.1" height="5.3"/>
				</g>
			</g>
			<linearGradient id="SVGID_4_" gradientUnits="userSpaceOnUse" x1="34.8065" y1="5.276" x2="34.8065" y2="95.3155">
				<stop  offset="0" style="stop-color:#764595"/>
				<stop  offset="1" style="stop-color:#9A4795"/>
			</linearGradient>
			<circle class="st5" cx="34.8" cy="68.6" r="9.1"/>
			<linearGradient id="SVGID_5_" gradientUnits="userSpaceOnUse" x1="72.6031" y1="4.4426" x2="72.6031" y2="96.944">
				<stop  offset="0" style="stop-color:#8457A0"/>
				<stop  offset="1" style="stop-color:#A459A0"/>
			</linearGradient>
			<circle class="st6" cx="72.6" cy="44.4" r="9.1"/>
		</g>
		<g>
			<linearGradient id="SVGID_6_" gradientUnits="userSpaceOnUse" x1="58.7349" y1="4.4426" x2="58.7349" y2="96.944">
				<stop  offset="0" style="stop-color:#8457A0"/>
				<stop  offset="1" style="stop-color:#A459A0"/>
			</linearGradient>
			<path class="st7" d="M68.5,4.7H52.7l-3.8,7.5l3.8,6.4h15.8V4.7z M68.5,4.7"/>
			<linearGradient id="SVGID_7_" gradientUnits="userSpaceOnUse" x1="44.799" y1="5.276" x2="44.799" y2="95.3155">
				<stop  offset="0" style="stop-color:#764595"/>
				<stop  offset="1" style="stop-color:#9A4795"/>
			</linearGradient>
			<rect x="36.9" y="4.7" class="st8" width="15.8" height="13.9"/>
		</g>
	</g>
</g>
</svg>
