<?xml version="1.0" encoding="utf-8"?>
<!-- Generator: Adobe Illustrator 22.1.0, SVG Export Plug-In . SVG Version: 6.00 Build 0)  -->
<svg version="1.1" id="Слой_1" xmlns="http://www.w3.org/2000/svg" xmlns:xlink="http://www.w3.org/1999/xlink" x="0px" y="0px"
	 viewBox="0 0 100 100" style="enable-background:new 0 0 100 100;" xml:space="preserve">
<style type="text/css">
	.st0{fill:#EBDAEA;}
	.st1{fill:#F5EDF4;}
	.st2{fill:url(#SVGID_1_);}
	.st3{fill:url(#SVGID_2_);}
	.st4{fill:url(#SVGID_3_);}
	.st5{fill:url(#SVGID_4_);}
	.st6{fill:url(#SVGID_5_);}
	.st7{fill:url(#SVGID_6_);}
	.st8{fill:url(#SVGID_7_);}
	.st9{fill:url(#SVGID_8_);}
	.st10{fill:url(#SVGID_9_);}
</style>
<g>
	<g>
		<path class="st0" d="M53.4,47.5c-10.9,0-19.8-8.9-19.8-19.8c0-10.9,8.9-19.8,19.8-19.8s19.8,8.9,19.8,19.8
			C73.2,38.6,64.3,47.5,53.4,47.5L53.4,47.5z M53.4,47.5"/>
		<path class="st1" d="M53.4,7.9v39.7c10.9,0,19.8-8.9,19.8-19.8C73.2,16.8,64.3,7.9,53.4,7.9L53.4,7.9z M53.4,7.9"/>
		<linearGradient id="SVGID_1_" gradientUnits="userSpaceOnUse" x1="53.3918" y1="3.276" x2="53.3918" y2="96.0601">
			<stop  offset="0" style="stop-color:#BBA2CA"/>
			<stop  offset="1" style="stop-color:#CDA3CA"/>
		</linearGradient>
		<path class="st2" d="M53.4,47.6C36.2,47.6,22,61.4,22,79v5.9c8.9,6.2,19.8,9.8,31.4,9.8c11.7,0,22.5-3.6,31.4-9.8V79
			C84.8,61.4,70.5,47.6,53.4,47.6L53.4,47.6z M53.4,47.6"/>
		<linearGradient id="SVGID_2_" gradientUnits="userSpaceOnUse" x1="69.1052" y1="4.6093" x2="69.1052" y2="97.2784">
			<stop  offset="0" style="stop-color:#D6C7DF"/>
			<stop  offset="1" style="stop-color:#E1C8DF"/>
		</linearGradient>
		<path class="st3" d="M84.8,84.9V79c0-17.6-14.3-31.4-31.4-31.4v47.1C65.1,94.7,75.9,91.1,84.8,84.9L84.8,84.9z M84.8,84.9"/>
		<linearGradient id="SVGID_3_" gradientUnits="userSpaceOnUse" x1="50.7611" y1="3.276" x2="50.7611" y2="96.0601">
			<stop  offset="0" style="stop-color:#BBA2CA"/>
			<stop  offset="1" style="stop-color:#CDA3CA"/>
		</linearGradient>
		<path class="st4" d="M71.5,15.2C70.3,9.2,65,4.7,58.6,4.7H32.4c-1.5,0-2.6,1.2-2.6,2.6v5.3c0,4.3,2.1,8.1,5.3,10.5
			c2.2,1.6,4.9,2.6,7.9,2.6H46c2.5,0,5-0.5,7.4-1.4c2.3-0.9,4.5-2.2,6.3-3.8h12.1v-2.6C71.8,16.9,71.7,16,71.5,15.2z"/>
		<linearGradient id="SVGID_4_" gradientUnits="userSpaceOnUse" x1="62.5919" y1="4.6093" x2="62.5919" y2="97.2784">
			<stop  offset="0" style="stop-color:#D6C7DF"/>
			<stop  offset="1" style="stop-color:#E1C8DF"/>
		</linearGradient>
		<path class="st5" d="M59.7,20.5c-1.8,1.7-4,2.9-6.3,3.8V4.7h5.3c6.4,0,11.7,4.5,12.9,10.5c0.2,0.8,0.3,1.7,0.3,2.6v2.6H59.7z"/>
		<g>
			<g>
				<linearGradient id="SVGID_5_" gradientUnits="userSpaceOnUse" x1="68.5048" y1="4.6093" x2="68.5048" y2="97.2784">
					<stop  offset="0" style="stop-color:#D6C7DF"/>
					<stop  offset="1" style="stop-color:#E1C8DF"/>
				</linearGradient>
				<path class="st6" d="M79.5,42.1H59.3c-1,0-1.8-0.8-1.8-1.8v0c0-1,0.8-1.8,1.8-1.8h16.6v-9h-2.7v-3.6h6.3V42.1z"/>
			</g>
		</g>
		<linearGradient id="SVGID_6_" gradientUnits="userSpaceOnUse" x1="51.2835" y1="5.276" x2="51.2835" y2="95.3155">
			<stop  offset="0" style="stop-color:#764595"/>
			<stop  offset="1" style="stop-color:#9A4795"/>
		</linearGradient>
		<path class="st7" d="M50.4,81.3c-0.8,0.7-1.2,1.7-1.2,2.8c0,1.1,0.4,2.1,1.2,2.8c0.8,0.8,1.8,1.2,3,1.2v-7.9
			C52.2,80.2,51.2,80.6,50.4,81.3z"/>
		<linearGradient id="SVGID_7_" gradientUnits="userSpaceOnUse" x1="51.3493" y1="5.276" x2="51.3493" y2="95.3155">
			<stop  offset="0" style="stop-color:#764595"/>
			<stop  offset="1" style="stop-color:#9A4795"/>
		</linearGradient>
		<polygon class="st8" points="49.3,57.1 50.7,77.1 53.4,77.1 53.4,57.1 		"/>
		<linearGradient id="SVGID_8_" gradientUnits="userSpaceOnUse" x1="55.4968" y1="4.4426" x2="55.4968" y2="96.944">
			<stop  offset="0" style="stop-color:#8457A0"/>
			<stop  offset="1" style="stop-color:#A459A0"/>
		</linearGradient>
		<path class="st9" d="M56.4,81.3c-0.8-0.7-1.8-1.1-3-1.1v7.9c1.2,0,2.2-0.4,3-1.2c0.8-0.8,1.2-1.7,1.2-2.8
			C57.6,83,57.2,82.1,56.4,81.3z"/>
		<linearGradient id="SVGID_9_" gradientUnits="userSpaceOnUse" x1="55.431" y1="4.4426" x2="55.431" y2="96.944">
			<stop  offset="0" style="stop-color:#8457A0"/>
			<stop  offset="1" style="stop-color:#A459A0"/>
		</linearGradient>
		<polygon class="st10" points="57.5,57.1 53.4,57.1 53.4,77.1 56.1,77.1 		"/>
	</g>
</g>
</svg>
