<?xml version="1.0" encoding="utf-8"?>
<!-- Generator: Adobe Illustrator 22.1.0, SVG Export Plug-In . SVG Version: 6.00 Build 0)  -->
<svg version="1.1" id="Слой_1" xmlns="http://www.w3.org/2000/svg" xmlns:xlink="http://www.w3.org/1999/xlink" x="0px" y="0px"
	 viewBox="0 0 100 100" style="enable-background:new 0 0 100 100;" xml:space="preserve">
<style type="text/css">
	.st0{fill:url(#SVGID_1_);}
	.st1{fill:url(#SVGID_2_);}
	.st2{fill:url(#SVGID_3_);}
	.st3{fill:url(#SVGID_4_);}
	.st4{fill:url(#SVGID_5_);}
	.st5{fill:url(#SVGID_6_);}
	.st6{fill:#F5EDF4;}
	.st7{fill:url(#SVGID_7_);}
	.st8{fill:url(#SVGID_8_);}
	.st9{fill:url(#SVGID_9_);}
	.st10{fill:url(#SVGID_10_);}
	.st11{fill:url(#SVGID_11_);}
	.st12{fill:#EBDAEA;}
	.st13{fill:url(#SVGID_12_);}
	.st14{fill:url(#SVGID_13_);}
	.st15{fill:url(#SVGID_14_);}
	.st16{fill:url(#SVGID_15_);}
	.st17{fill:url(#SVGID_16_);}
	.st18{fill:url(#SVGID_17_);}
	.st19{fill:url(#SVGID_18_);}
	.st20{fill:url(#SVGID_19_);}
	.st21{fill:url(#SVGID_20_);}
</style>
<g>
	<g>
		<linearGradient id="SVGID_1_" gradientUnits="userSpaceOnUse" x1="64.1479" y1="4.6093" x2="64.1479" y2="97.2784">
			<stop  offset="0" style="stop-color:#D6C7DF"/>
			<stop  offset="1" style="stop-color:#E1C8DF"/>
		</linearGradient>
		<path class="st0" d="M50.5,13.6c0,0,14-1.3,21.9,8.4s4.6,22.3,4.6,22.3l-6.2,17.5h-6.7H50.5V13.6z"/>
		<linearGradient id="SVGID_2_" gradientUnits="userSpaceOnUse" x1="72.1513" y1="3.276" x2="72.1513" y2="96.0601">
			<stop  offset="0" style="stop-color:#BBA2CA"/>
			<stop  offset="1" style="stop-color:#CDA3CA"/>
		</linearGradient>
		<path class="st1" d="M89.3,80.6c0,0,8.7-11,5-22.9S78.2,41.7,78.2,41.7l-20.5-3.5l-1.2,4.8l-7.4,11.4L89.3,80.6z"/>
		<linearGradient id="SVGID_3_" gradientUnits="userSpaceOnUse" x1="70.4467" y1="4.6093" x2="70.4467" y2="97.2784">
			<stop  offset="0" style="stop-color:#D6C7DF"/>
			<stop  offset="1" style="stop-color:#E1C8DF"/>
		</linearGradient>
		<path class="st2" d="M77.7,40.1c0,0-0.7,13.2-9.2,21.3s-4-11.2-4-11.2l2.8-10.5L77.7,40.1z"/>
		<linearGradient id="SVGID_4_" gradientUnits="userSpaceOnUse" x1="79.8589" y1="4.6093" x2="79.8589" y2="97.2784">
			<stop  offset="0" style="stop-color:#D6C7DF"/>
			<stop  offset="1" style="stop-color:#E1C8DF"/>
		</linearGradient>
		<polygon class="st3" points="92.5,71.6 87.6,64.3 85.1,66.8 83.7,63.3 67.3,66.2 85.4,74.6 		"/>
		<linearGradient id="SVGID_5_" gradientUnits="userSpaceOnUse" x1="63.6352" y1="3.276" x2="63.6352" y2="96.0601">
			<stop  offset="0" style="stop-color:#BBA2CA"/>
			<stop  offset="1" style="stop-color:#CDA3CA"/>
		</linearGradient>
		<path class="st4" d="M89.3,80.6c0,0-6.6,12.4-19,13.8S49.2,86,49.2,86L37.9,71.3l3.7-5.6l7.4-11.4L89.3,80.6z"/>
		<linearGradient id="SVGID_6_" gradientUnits="userSpaceOnUse" x1="74.7744" y1="4.6093" x2="74.7744" y2="97.2784">
			<stop  offset="0" style="stop-color:#D6C7DF"/>
			<stop  offset="1" style="stop-color:#E1C8DF"/>
		</linearGradient>
		<polygon class="st5" points="82.3,87.1 73.6,85.6 75,82.3 71.2,82.5 67.3,66.2 82.2,79.4 		"/>
		<polygon class="st6" points="80.6,68 67.3,66.2 74.1,78 		"/>
		<g>
			<polygon class="st6" points="80.6,68 67.3,66.2 77.4,72.9 			"/>
		</g>
		
			<ellipse transform="matrix(0.5472 -0.837 0.837 0.5472 -26.7158 107.3019)" class="st6" cx="85.8" cy="78.3" rx="10.2" ry="13.1"/>
		<linearGradient id="SVGID_7_" gradientUnits="userSpaceOnUse" x1="36.5895" y1="4.6093" x2="36.5895" y2="97.2784">
			<stop  offset="0" style="stop-color:#D6C7DF"/>
			<stop  offset="1" style="stop-color:#E1C8DF"/>
		</linearGradient>
		<path class="st7" d="M10.7,79.9c0,0,6.1,12.6,18.4,14.5c12.3,1.9,21.5-7.5,21.5-7.5l11.8-14.3L59,66.9l-7-11.7L10.7,79.9z"/>
		<linearGradient id="SVGID_8_" gradientUnits="userSpaceOnUse" x1="51.6464" y1="3.276" x2="51.6464" y2="96.0601">
			<stop  offset="0" style="stop-color:#BBA2CA"/>
			<stop  offset="1" style="stop-color:#CDA3CA"/>
		</linearGradient>
		<path class="st8" d="M60.1,93c0,0-12.7-3.8-18.5-14s11.8-1.2,11.8-1.2l9.5,5.1L60.1,93z"/>
		<linearGradient id="SVGID_9_" gradientUnits="userSpaceOnUse" x1="25.4314" y1="3.276" x2="25.4314" y2="96.0601">
			<stop  offset="0" style="stop-color:#BBA2CA"/>
			<stop  offset="1" style="stop-color:#CDA3CA"/>
		</linearGradient>
		<polygon class="st9" points="17.5,86.7 26.2,85.5 25,82.2 28.8,82.5 33.4,66.4 17.9,79 		"/>
		<linearGradient id="SVGID_10_" gradientUnits="userSpaceOnUse" x1="28.7503" y1="4.6093" x2="28.7503" y2="97.2784">
			<stop  offset="0" style="stop-color:#D6C7DF"/>
			<stop  offset="1" style="stop-color:#E1C8DF"/>
		</linearGradient>
		<path class="st10" d="M10.7,79.9c0,0-8.2-11.3-4.1-23.1s16.8-15.4,16.8-15.4l18.2-3.7l3.4,5.8l7,11.7L10.7,79.9z"/>
		<linearGradient id="SVGID_11_" gradientUnits="userSpaceOnUse" x1="20.6635" y1="3.276" x2="20.6635" y2="96.0601">
			<stop  offset="0" style="stop-color:#BBA2CA"/>
			<stop  offset="1" style="stop-color:#CDA3CA"/>
		</linearGradient>
		<polygon class="st11" points="8,70.8 13.2,63.7 15.5,66.2 17,62.8 33.4,66.4 14.9,74.1 		"/>
		<polygon class="st12" points="25.9,77.6 33.4,66.4 19.8,67.4 		"/>
		
			<ellipse transform="matrix(0.8583 -0.5132 0.5132 0.8583 -37.8791 18.3724)" class="st12" cx="14.3" cy="77.8" rx="13.1" ry="10.2"/>
		<linearGradient id="SVGID_12_" gradientUnits="userSpaceOnUse" x1="36.9454" y1="3.276" x2="36.9454" y2="96.0601">
			<stop  offset="0" style="stop-color:#BBA2CA"/>
			<stop  offset="1" style="stop-color:#CDA3CA"/>
		</linearGradient>
		<path class="st13" d="M50.5,13.6c0,0-14-1.3-21.9,8.4S24,44.3,24,44.3l6.2,17.5h6.7h13.6V13.6z"/>
		<linearGradient id="SVGID_13_" gradientUnits="userSpaceOnUse" x1="33.106" y1="4.6093" x2="33.106" y2="97.2784">
			<stop  offset="0" style="stop-color:#D6C7DF"/>
			<stop  offset="1" style="stop-color:#E1C8DF"/>
		</linearGradient>
		<path class="st14" d="M19.8,42.9c0,0,12-5.6,23.1-1.9s-8,8.8-8,8.8l-10.5,2.5L19.8,42.9z"/>
		<linearGradient id="SVGID_14_" gradientUnits="userSpaceOnUse" x1="44.1881" y1="4.6093" x2="44.1881" y2="97.2784">
			<stop  offset="0" style="stop-color:#D6C7DF"/>
			<stop  offset="1" style="stop-color:#E1C8DF"/>
		</linearGradient>
		<polygon class="st15" points="41.3,15.9 37.8,24 41.3,24.7 39.1,27.8 50.5,40 47.7,20.2 		"/>
		<linearGradient id="SVGID_15_" gradientUnits="userSpaceOnUse" x1="56.9052" y1="3.276" x2="56.9052" y2="96.0601">
			<stop  offset="0" style="stop-color:#BBA2CA"/>
			<stop  offset="1" style="stop-color:#CDA3CA"/>
		</linearGradient>
		<polygon class="st16" points="59.8,15.9 63.3,24 59.8,24.7 62,27.8 50.5,40 53.4,20.2 		"/>
		<polygon class="st6" points="44.7,27.8 50.5,40 56.7,27.8 		"/>
		<g>
			<polygon class="st12" points="44.7,27.8 50.5,40 50.5,27.8 			"/>
		</g>
		<ellipse class="st6" cx="50.5" cy="17.8" rx="10.2" ry="13.1"/>
		<path class="st12" d="M50.5,4.7c-5.6,0-10.2,5.9-10.2,13.1c0,7.2,4.6,13.1,10.2,13.1V4.7z"/>
		<linearGradient id="SVGID_16_" gradientUnits="userSpaceOnUse" x1="50.5466" y1="4.9426" x2="50.5466" y2="93.9426">
			<stop  offset="0" style="stop-color:#8457A0"/>
			<stop  offset="1" style="stop-color:#A459A0"/>
		</linearGradient>
		<circle class="st17" cx="50.5" cy="57.2" r="21.3"/>
		<linearGradient id="SVGID_17_" gradientUnits="userSpaceOnUse" x1="39.893" y1="3.6093" x2="39.893" y2="94.2398">
			<stop  offset="0" style="stop-color:#764595"/>
			<stop  offset="1" style="stop-color:#9A4795"/>
		</linearGradient>
		<path class="st18" d="M50.5,35.9c-11.8,0-21.3,9.5-21.3,21.3c0,11.8,9.5,21.3,21.3,21.3V35.9z"/>
		<g>
			<linearGradient id="SVGID_18_" gradientUnits="userSpaceOnUse" x1="50.5466" y1="4.6093" x2="50.5466" y2="97.2784">
				<stop  offset="0" style="stop-color:#D6C7DF"/>
				<stop  offset="1" style="stop-color:#E1C8DF"/>
			</linearGradient>
			<polygon class="st19" points="48.4,43.5 41.2,59.6 41.2,63.3 52.3,63.3 52.3,70.6 57.2,70 57.2,63.4 59.9,63.4 59.9,58.9 
				57.3,58.9 57.3,48.9 53.2,49.8 52.5,58.8 46.6,58.8 53.8,43.5 			"/>
			<linearGradient id="SVGID_19_" gradientUnits="userSpaceOnUse" x1="52.1603" y1="4.6093" x2="52.1603" y2="97.2784">
				<stop  offset="0" style="stop-color:#D6C7DF"/>
				<stop  offset="1" style="stop-color:#E1C8DF"/>
			</linearGradient>
			<polygon class="st20" points="53.8,43.5 50.5,43.5 50.5,50.4 			"/>
		</g>
		<linearGradient id="SVGID_20_" gradientUnits="userSpaceOnUse" x1="45.8935" y1="3.276" x2="45.8935" y2="96.0601">
			<stop  offset="0" style="stop-color:#BBA2CA"/>
			<stop  offset="1" style="stop-color:#CDA3CA"/>
		</linearGradient>
		<polygon class="st21" points="46.6,58.8 50.5,50.4 50.5,43.5 48.4,43.5 41.2,59.6 41.2,63.3 50.5,63.3 50.5,58.8 		"/>
	</g>
</g>
</svg>
