<?xml version="1.0" encoding="utf-8"?>
<!-- Generator: Adobe Illustrator 22.1.0, SVG Export Plug-In . SVG Version: 6.00 Build 0)  -->
<svg version="1.1" id="Слой_1" xmlns="http://www.w3.org/2000/svg" xmlns:xlink="http://www.w3.org/1999/xlink" x="0px" y="0px"
	 viewBox="0 0 100 100" style="enable-background:new 0 0 100 100;" xml:space="preserve">
<style type="text/css">
	.st0{fill:url(#SVGID_1_);}
	.st1{fill:url(#SVGID_2_);}
	.st2{fill:url(#SVGID_3_);}
	.st3{fill:url(#SVGID_4_);}
	.st4{fill:url(#SVGID_5_);}
	.st5{fill:url(#SVGID_6_);}
	.st6{fill:#F5EDF4;}
	.st7{fill:#EBDAEA;}
	.st8{fill:url(#SVGID_7_);}
	.st9{fill:url(#SVGID_8_);}
	.st10{fill:url(#SVGID_9_);}
	.st11{fill:url(#SVGID_10_);}
	.st12{fill:url(#SVGID_11_);}
	.st13{fill:url(#SVGID_12_);}
	.st14{fill:url(#SVGID_13_);}
	.st15{fill:url(#SVGID_14_);}
	.st16{fill:url(#SVGID_15_);}
	.st17{fill:url(#SVGID_16_);}
	.st18{fill:url(#SVGID_17_);}
	.st19{fill:url(#SVGID_18_);}
	.st20{fill:url(#SVGID_19_);}
	.st21{fill:url(#SVGID_20_);}
	.st22{fill:url(#SVGID_21_);}
	.st23{fill:url(#SVGID_22_);}
	.st24{fill:url(#SVGID_23_);}
	.st25{fill:url(#SVGID_24_);}
	.st26{fill:url(#SVGID_25_);}
	.st27{fill:url(#SVGID_26_);}
	.st28{fill:url(#SVGID_27_);}
	.st29{fill:url(#SVGID_28_);}
	.st30{fill:url(#SVGID_29_);}
	.st31{fill:url(#SVGID_30_);}
	.st32{fill:url(#SVGID_31_);}
	.st33{fill:url(#SVGID_32_);}
	.st34{fill:url(#SVGID_33_);}
	.st35{fill:url(#SVGID_34_);}
	.st36{fill:url(#SVGID_35_);}
	.st37{fill:url(#SVGID_36_);}
</style>
<g>
	<g>
		<linearGradient id="SVGID_1_" gradientUnits="userSpaceOnUse" x1="50.7298" y1="3.276" x2="50.7298" y2="96.0601">
			<stop  offset="0" style="stop-color:#BBA2CA"/>
			<stop  offset="1" style="stop-color:#CDA3CA"/>
		</linearGradient>
		<polygon class="st0" points="7.4,43.8 74.2,4.7 94,38.7 27.3,77.7 		"/>
		<linearGradient id="SVGID_2_" gradientUnits="userSpaceOnUse" x1="50.7323" y1="4.6093" x2="50.7323" y2="97.2784">
			<stop  offset="0" style="stop-color:#D6C7DF"/>
			<stop  offset="1" style="stop-color:#E1C8DF"/>
		</linearGradient>
		<path class="st1" d="M69,12.1L16.4,42.9c1.1,2,0.4,4.5-1.6,5.7l11.9,20.3c2-1.2,4.6-0.5,5.7,1.4l52.6-30.8c-1.1-2-0.4-4.5,1.6-5.7
			L74.7,13.5C72.7,14.7,70.2,14.1,69,12.1z"/>
		<g>
			<linearGradient id="SVGID_3_" gradientUnits="userSpaceOnUse" x1="50.7316" y1="3.276" x2="50.7316" y2="96.0601">
				<stop  offset="0" style="stop-color:#BBA2CA"/>
				<stop  offset="1" style="stop-color:#CDA3CA"/>
			</linearGradient>
			<path class="st2" d="M43.9,29.6c5.1-3,12.2-0.2,15.9,6.2c3.7,6.4,2.7,14-2.4,16.9c-5.1,3-12.2,0.2-15.9-6.2
				C37.8,40.2,38.9,32.6,43.9,29.6z"/>
			<linearGradient id="SVGID_4_" gradientUnits="userSpaceOnUse" x1="76.6611" y1="3.276" x2="76.6611" y2="96.0601">
				<stop  offset="0" style="stop-color:#BBA2CA"/>
				<stop  offset="1" style="stop-color:#CDA3CA"/>
			</linearGradient>
			<ellipse class="st3" cx="76.7" cy="26" rx="2.4" ry="2.4"/>
		</g>
		<linearGradient id="SVGID_5_" gradientUnits="userSpaceOnUse" x1="24.7998" y1="3.276" x2="24.7998" y2="96.0601">
			<stop  offset="0" style="stop-color:#BBA2CA"/>
			<stop  offset="1" style="stop-color:#CDA3CA"/>
		</linearGradient>
		<ellipse class="st4" cx="24.8" cy="56.4" rx="2.4" ry="2.4"/>
		<linearGradient id="SVGID_6_" gradientUnits="userSpaceOnUse" x1="50.8944" y1="4.6093" x2="50.8944" y2="97.2784">
			<stop  offset="0" style="stop-color:#D6C7DF"/>
			<stop  offset="1" style="stop-color:#E1C8DF"/>
		</linearGradient>
		<path class="st5" d="M55.7,50.8l-1-1.6c-2.2,1-4.5,1.3-7,0.8l0.5-2.9c1.9,0.4,3.6,0.3,5-0.3l-2.6-4.4c-1.9,0.6-3.5,0.8-4.7,0.6
			c-1.2-0.2-2.1-0.9-2.9-2.2c-0.8-1.3-0.9-2.6-0.5-4c0.4-1.4,1.3-2.5,2.8-3.4l-0.7-1.1l1.4-0.8l0.7,1.1c1.7-0.8,3.6-1.2,5.7-1.1
			l-0.3,2.9c-1.4-0.1-2.7,0.1-4,0.6l2.5,4.2l0.1,0c2-0.6,3.6-0.8,4.8-0.6c1.2,0.2,2.2,1,3,2.3c0.8,1.3,0.9,2.7,0.5,4
			c-0.4,1.4-1.4,2.5-2.9,3.5l0.9,1.6L55.7,50.8z M45.6,37.2c-0.2,0.6-0.1,1.1,0.2,1.6c0.3,0.5,0.7,0.8,1.1,0.9
			c0.5,0.1,1.2,0.1,2.2-0.2l-2.3-3.9C46.2,36.2,45.8,36.7,45.6,37.2z M56.1,44.3c0.2-0.6,0.2-1.1-0.1-1.7c-0.3-0.5-0.7-0.8-1.2-1
			c-0.5-0.1-1.3,0-2.4,0.2l2.4,4.1C55.5,45.5,55.9,44.9,56.1,44.3z"/>
		<rect x="43.2" y="21.5" transform="matrix(0.863 -0.5053 0.5053 0.863 -13.8744 31.2825)" class="st6" width="15" height="39.4"/>
		<g>
			
				<rect x="45.1" y="24.5" transform="matrix(0.863 -0.5053 0.5053 0.863 -16.0519 29.1476)" class="st7" width="1.1" height="39.4"/>
			
				<rect x="55.2" y="18.6" transform="matrix(0.863 -0.5053 0.5053 0.863 -11.6975 33.4183)" class="st7" width="1.1" height="39.4"/>
		</g>
		<linearGradient id="SVGID_7_" gradientUnits="userSpaceOnUse" x1="50.9992" y1="3.276" x2="50.9992" y2="96.0601">
			<stop  offset="0" style="stop-color:#BBA2CA"/>
			<stop  offset="1" style="stop-color:#CDA3CA"/>
		</linearGradient>
		<polygon class="st8" points="9.3,42.6 85.3,28 92.7,66.7 16.7,81.3 		"/>
		<linearGradient id="SVGID_8_" gradientUnits="userSpaceOnUse" x1="51.0018" y1="4.6093" x2="51.0018" y2="97.2784">
			<stop  offset="0" style="stop-color:#D6C7DF"/>
			<stop  offset="1" style="stop-color:#E1C8DF"/>
		</linearGradient>
		<path class="st9" d="M18.4,75.2l-5.3-27.6c1.5-0.3,2.5-1.8,2.2-3.3l64.9-12.5c0.3,1.5,1.8,2.5,3.3,2.2l5.3,27.6
			c-1.5,0.3-2.5,1.8-2.2,3.3L21.7,77.4C21.4,75.9,20,74.9,18.4,75.2z"/>
		<g>
			<linearGradient id="SVGID_9_" gradientUnits="userSpaceOnUse" x1="51.0016" y1="3.276" x2="51.0016" y2="96.0601">
				<stop  offset="0" style="stop-color:#BBA2CA"/>
				<stop  offset="1" style="stop-color:#CDA3CA"/>
			</linearGradient>
			<path class="st10" d="M48.5,41.5c5.8-1.1,11.6,3.9,13,11.2s-2.1,14.1-7.9,15.2c-5.8,1.1-11.6-3.9-13-11.2S42.7,42.6,48.5,41.5z"
				/>
			<linearGradient id="SVGID_10_" gradientUnits="userSpaceOnUse" x1="80.5057" y1="3.276" x2="80.5057" y2="96.0601">
				<stop  offset="0" style="stop-color:#BBA2CA"/>
				<stop  offset="1" style="stop-color:#CDA3CA"/>
			</linearGradient>
			<ellipse class="st11" cx="80.5" cy="49" rx="2.4" ry="2.4"/>
			<linearGradient id="SVGID_11_" gradientUnits="userSpaceOnUse" x1="21.4939" y1="3.276" x2="21.4939" y2="96.0601">
				<stop  offset="0" style="stop-color:#BBA2CA"/>
				<stop  offset="1" style="stop-color:#CDA3CA"/>
			</linearGradient>
			<ellipse class="st12" cx="21.5" cy="60.3" rx="2.4" ry="2.4"/>
		</g>
		<linearGradient id="SVGID_12_" gradientUnits="userSpaceOnUse" x1="51.3037" y1="4.6093" x2="51.3037" y2="97.2784">
			<stop  offset="0" style="stop-color:#D6C7DF"/>
			<stop  offset="1" style="stop-color:#E1C8DF"/>
		</linearGradient>
		<path class="st13" d="M52.5,65.4l-0.4-1.9c-2.4,0.2-4.7-0.3-6.8-1.6l1.4-2.6c1.7,1,3.3,1.4,4.9,1.4l-1-5c-2-0.1-3.5-0.4-4.6-1
			s-1.7-1.6-2-3.1s0-2.8,0.9-3.9c0.9-1.1,2.1-1.9,3.7-2.3l-0.2-1.3l1.6-0.3l0.3,1.3c1.9-0.2,3.8,0.1,5.7,0.9l-1.2,2.7
			c-1.3-0.6-2.6-0.8-3.9-0.8l0.9,4.8l0.1,0c2.1,0.1,3.6,0.4,4.7,1c1.1,0.6,1.8,1.7,2,3.2c0.3,1.5,0,2.8-0.9,4
			c-0.9,1.1-2.2,1.9-3.9,2.3l0.4,1.8L52.5,65.4z M47.5,49.2c-0.4,0.5-0.5,1-0.4,1.6c0.1,0.6,0.4,1,0.8,1.3c0.4,0.3,1.1,0.5,2.1,0.6
			l-0.9-4.4C48.4,48.4,47.9,48.7,47.5,49.2z M55,59.4c0.4-0.5,0.5-1,0.4-1.6c-0.1-0.6-0.4-1-0.8-1.3c-0.4-0.3-1.2-0.5-2.3-0.6
			l0.9,4.6C54,60.2,54.6,59.9,55,59.4z"/>
		<linearGradient id="SVGID_13_" gradientUnits="userSpaceOnUse" x1="19.7568" y1="5.276" x2="19.7568" y2="95.3155">
			<stop  offset="0" style="stop-color:#764595"/>
			<stop  offset="1" style="stop-color:#9A4795"/>
		</linearGradient>
		<path class="st14" d="M35.5,88.1c0,3.6-7,6.6-15.7,6.6s-15.7-3-15.7-6.6v-5.4h31.4V88.1z"/>
		<linearGradient id="SVGID_14_" gradientUnits="userSpaceOnUse" x1="19.7571" y1="4.4426" x2="19.7571" y2="96.944">
			<stop  offset="0" style="stop-color:#8457A0"/>
			<stop  offset="1" style="stop-color:#A459A0"/>
		</linearGradient>
		<ellipse class="st15" cx="19.8" cy="82.7" rx="15.7" ry="6.6"/>
		<g>
			<linearGradient id="SVGID_15_" gradientUnits="userSpaceOnUse" x1="19.7568" y1="5.276" x2="19.7568" y2="95.3155">
				<stop  offset="0" style="stop-color:#764595"/>
				<stop  offset="1" style="stop-color:#9A4795"/>
			</linearGradient>
			<path class="st16" d="M19.8,77.4C12.2,77.4,6,79.8,6,82.7c0,2.9,6.1,5.3,13.7,5.3s13.7-2.4,13.7-5.3
				C33.5,79.8,27.3,77.4,19.8,77.4z M19.8,87.4c-6.7,0-12.2-2.1-12.2-4.7c0-2.6,5.5-4.7,12.2-4.7s12.2,2.1,12.2,4.7
				C31.9,85.3,26.5,87.4,19.8,87.4z"/>
			<linearGradient id="SVGID_16_" gradientUnits="userSpaceOnUse" x1="19.7568" y1="5.276" x2="19.7568" y2="95.3155">
				<stop  offset="0" style="stop-color:#764595"/>
				<stop  offset="1" style="stop-color:#9A4795"/>
			</linearGradient>
			<path class="st17" d="M19.3,86.4v-0.6c-2.1-0.1-4-0.4-5.6-1l1.7-0.8c1.3,0.4,2.6,0.7,4,0.8V83c-1.7-0.2-3-0.4-3.8-0.6
				c-0.8-0.3-1.2-0.6-1.2-1.2s0.5-0.9,1.4-1.3c0.9-0.3,2.1-0.5,3.6-0.5V79h1.5v0.5c1.7,0,3.3,0.3,4.8,0.7L24,80.9
				c-1-0.3-2.1-0.4-3.3-0.5v1.7h0.1c1.8,0.2,3,0.4,3.9,0.6c0.8,0.3,1.2,0.7,1.2,1.2c0,0.5-0.5,0.9-1.4,1.3c-0.9,0.3-2.2,0.5-3.7,0.5
				v0.6H19.3z M17.6,80.6c-0.4,0.1-0.6,0.3-0.6,0.5c0,0.2,0.2,0.4,0.5,0.5c0.3,0.1,0.9,0.2,1.7,0.3v-1.5
				C18.6,80.4,18,80.5,17.6,80.6z M22.5,84.5c0.4-0.1,0.6-0.3,0.6-0.5c0-0.2-0.2-0.4-0.5-0.5c-0.3-0.1-1-0.2-1.9-0.3v1.6
				C21.4,84.7,22,84.7,22.5,84.5z"/>
		</g>
		<linearGradient id="SVGID_17_" gradientUnits="userSpaceOnUse" x1="19.7568" y1="5.276" x2="19.7568" y2="95.3155">
			<stop  offset="0" style="stop-color:#764595"/>
			<stop  offset="1" style="stop-color:#9A4795"/>
		</linearGradient>
		<path class="st18" d="M35.5,81.5c0,3.6-7,6.6-15.7,6.6s-15.7-3-15.7-6.6v-5.4h31.4V81.5z"/>
		<linearGradient id="SVGID_18_" gradientUnits="userSpaceOnUse" x1="19.7571" y1="4.4426" x2="19.7571" y2="96.944">
			<stop  offset="0" style="stop-color:#8457A0"/>
			<stop  offset="1" style="stop-color:#A459A0"/>
		</linearGradient>
		<ellipse class="st19" cx="19.8" cy="76.1" rx="15.7" ry="6.6"/>
		<g>
			<linearGradient id="SVGID_19_" gradientUnits="userSpaceOnUse" x1="19.7568" y1="5.276" x2="19.7568" y2="95.3155">
				<stop  offset="0" style="stop-color:#764595"/>
				<stop  offset="1" style="stop-color:#9A4795"/>
			</linearGradient>
			<path class="st20" d="M19.8,70.8C12.2,70.8,6,73.2,6,76.1c0,2.9,6.1,5.3,13.7,5.3s13.7-2.4,13.7-5.3
				C33.5,73.2,27.3,70.8,19.8,70.8z M19.8,80.8c-6.7,0-12.2-2.1-12.2-4.7c0-2.6,5.5-4.7,12.2-4.7s12.2,2.1,12.2,4.7
				C31.9,78.7,26.5,80.8,19.8,80.8z"/>
			<linearGradient id="SVGID_20_" gradientUnits="userSpaceOnUse" x1="19.7568" y1="5.276" x2="19.7568" y2="95.3155">
				<stop  offset="0" style="stop-color:#764595"/>
				<stop  offset="1" style="stop-color:#9A4795"/>
			</linearGradient>
			<path class="st21" d="M19.3,79.8v-0.6c-2.1-0.1-4-0.4-5.6-1l1.7-0.8c1.3,0.4,2.6,0.7,4,0.8v-1.7c-1.7-0.2-3-0.4-3.8-0.6
				c-0.8-0.3-1.2-0.6-1.2-1.2c0-0.5,0.5-0.9,1.4-1.3c0.9-0.3,2.1-0.5,3.6-0.5v-0.4h1.5v0.5c1.7,0,3.3,0.3,4.8,0.7L24,74.4
				c-1-0.3-2.1-0.4-3.3-0.5v1.7h0.1c1.8,0.2,3,0.4,3.9,0.6c0.8,0.3,1.2,0.7,1.2,1.2c0,0.5-0.5,0.9-1.4,1.3c-0.9,0.3-2.2,0.5-3.7,0.5
				v0.6H19.3z M17.6,74.1c-0.4,0.1-0.6,0.3-0.6,0.5c0,0.2,0.2,0.4,0.5,0.5c0.3,0.1,0.9,0.2,1.7,0.3v-1.5
				C18.6,73.9,18,73.9,17.6,74.1z M22.5,78c0.4-0.1,0.6-0.3,0.6-0.5c0-0.2-0.2-0.4-0.5-0.5c-0.3-0.1-1-0.2-1.9-0.3v1.6
				C21.4,78.2,22,78.1,22.5,78z"/>
		</g>
		<linearGradient id="SVGID_21_" gradientUnits="userSpaceOnUse" x1="19.7568" y1="5.276" x2="19.7568" y2="95.3155">
			<stop  offset="0" style="stop-color:#764595"/>
			<stop  offset="1" style="stop-color:#9A4795"/>
		</linearGradient>
		<path class="st22" d="M35.5,75c0,3.6-7,6.6-15.7,6.6S4.1,78.6,4.1,75v-5.4h31.4V75z"/>
		<linearGradient id="SVGID_22_" gradientUnits="userSpaceOnUse" x1="19.7571" y1="4.4426" x2="19.7571" y2="96.944">
			<stop  offset="0" style="stop-color:#8457A0"/>
			<stop  offset="1" style="stop-color:#A459A0"/>
		</linearGradient>
		<ellipse class="st23" cx="19.8" cy="69.6" rx="15.7" ry="6.6"/>
		<g>
			<linearGradient id="SVGID_23_" gradientUnits="userSpaceOnUse" x1="19.7568" y1="5.276" x2="19.7568" y2="95.3155">
				<stop  offset="0" style="stop-color:#764595"/>
				<stop  offset="1" style="stop-color:#9A4795"/>
			</linearGradient>
			<path class="st24" d="M19.8,64.3C12.2,64.3,6,66.6,6,69.6c0,2.9,6.1,5.3,13.7,5.3s13.7-2.4,13.7-5.3
				C33.5,66.6,27.3,64.3,19.8,64.3z M19.8,74.3c-6.7,0-12.2-2.1-12.2-4.7c0-2.6,5.5-4.7,12.2-4.7s12.2,2.1,12.2,4.7
				C31.9,72.2,26.5,74.3,19.8,74.3z"/>
			<linearGradient id="SVGID_24_" gradientUnits="userSpaceOnUse" x1="19.7568" y1="5.276" x2="19.7568" y2="95.3155">
				<stop  offset="0" style="stop-color:#764595"/>
				<stop  offset="1" style="stop-color:#9A4795"/>
			</linearGradient>
			<path class="st25" d="M19.3,73.2v-0.6c-2.1-0.1-4-0.4-5.6-1l1.7-0.8c1.3,0.4,2.6,0.7,4,0.8v-1.7c-1.7-0.2-3-0.4-3.8-0.6
				c-0.8-0.3-1.2-0.6-1.2-1.2s0.5-0.9,1.4-1.3c0.9-0.3,2.1-0.5,3.6-0.5v-0.4h1.5v0.5c1.7,0,3.3,0.3,4.8,0.7L24,67.8
				c-1-0.3-2.1-0.4-3.3-0.5V69h0.1c1.8,0.2,3,0.4,3.9,0.6c0.8,0.3,1.2,0.7,1.2,1.2c0,0.5-0.5,0.9-1.4,1.3c-0.9,0.3-2.2,0.5-3.7,0.5
				v0.6H19.3z M17.6,67.5c-0.4,0.1-0.6,0.3-0.6,0.5c0,0.2,0.2,0.4,0.5,0.5c0.3,0.1,0.9,0.2,1.7,0.3v-1.5
				C18.6,67.3,18,67.4,17.6,67.5z M22.5,71.4c0.4-0.1,0.6-0.3,0.6-0.5c0-0.2-0.2-0.4-0.5-0.5c-0.3-0.1-1-0.2-1.9-0.3v1.6
				C21.4,71.6,22,71.5,22.5,71.4z"/>
		</g>
		<linearGradient id="SVGID_25_" gradientUnits="userSpaceOnUse" x1="19.7568" y1="5.276" x2="19.7568" y2="95.3155">
			<stop  offset="0" style="stop-color:#764595"/>
			<stop  offset="1" style="stop-color:#9A4795"/>
		</linearGradient>
		<path class="st26" d="M35.5,68.4c0,3.6-7,6.6-15.7,6.6s-15.7-3-15.7-6.6V63h31.4V68.4z"/>
		<linearGradient id="SVGID_26_" gradientUnits="userSpaceOnUse" x1="19.7571" y1="4.4426" x2="19.7571" y2="96.944">
			<stop  offset="0" style="stop-color:#8457A0"/>
			<stop  offset="1" style="stop-color:#A459A0"/>
		</linearGradient>
		<ellipse class="st27" cx="19.8" cy="63" rx="15.7" ry="6.6"/>
		<g>
			<linearGradient id="SVGID_27_" gradientUnits="userSpaceOnUse" x1="19.7568" y1="5.276" x2="19.7568" y2="95.3155">
				<stop  offset="0" style="stop-color:#764595"/>
				<stop  offset="1" style="stop-color:#9A4795"/>
			</linearGradient>
			<path class="st28" d="M19.8,57.7C12.2,57.7,6,60.1,6,63c0,2.9,6.1,5.3,13.7,5.3s13.7-2.4,13.7-5.3C33.5,60.1,27.3,57.7,19.8,57.7
				z M19.8,67.7C13,67.7,7.6,65.6,7.6,63c0-2.6,5.5-4.7,12.2-4.7s12.2,2.1,12.2,4.7C31.9,65.6,26.5,67.7,19.8,67.7z"/>
			<linearGradient id="SVGID_28_" gradientUnits="userSpaceOnUse" x1="19.7568" y1="5.276" x2="19.7568" y2="95.3155">
				<stop  offset="0" style="stop-color:#764595"/>
				<stop  offset="1" style="stop-color:#9A4795"/>
			</linearGradient>
			<path class="st29" d="M19.3,66.7V66c-2.1-0.1-4-0.4-5.6-1l1.7-0.8c1.3,0.4,2.6,0.7,4,0.8v-1.7c-1.7-0.2-3-0.4-3.8-0.6
				c-0.8-0.3-1.2-0.6-1.2-1.2s0.5-0.9,1.4-1.3c0.9-0.3,2.1-0.5,3.6-0.5v-0.4h1.5v0.5c1.7,0,3.3,0.3,4.8,0.7L24,61.3
				c-1-0.3-2.1-0.4-3.3-0.5v1.7h0.1c1.8,0.2,3,0.4,3.9,0.6c0.8,0.3,1.2,0.7,1.2,1.2c0,0.5-0.5,0.9-1.4,1.3c-0.9,0.3-2.2,0.5-3.7,0.5
				v0.6H19.3z M17.6,61c-0.4,0.1-0.6,0.3-0.6,0.5s0.2,0.4,0.5,0.5c0.3,0.1,0.9,0.2,1.7,0.3v-1.5C18.6,60.7,18,60.8,17.6,61z
				 M22.5,64.8c0.4-0.1,0.6-0.3,0.6-0.5c0-0.2-0.2-0.4-0.5-0.5c-0.3-0.1-1-0.2-1.9-0.3v1.6C21.4,65.1,22,65,22.5,64.8z"/>
		</g>
		<linearGradient id="SVGID_29_" gradientUnits="userSpaceOnUse" x1="52.8783" y1="5.276" x2="52.8783" y2="95.3155">
			<stop  offset="0" style="stop-color:#764595"/>
			<stop  offset="1" style="stop-color:#9A4795"/>
		</linearGradient>
		<path class="st30" d="M68.6,88.1c0,3.6-7,6.6-15.7,6.6s-15.7-3-15.7-6.6v-5.4h31.4V88.1z"/>
		<linearGradient id="SVGID_30_" gradientUnits="userSpaceOnUse" x1="52.877" y1="4.4426" x2="52.877" y2="96.944">
			<stop  offset="0" style="stop-color:#8457A0"/>
			<stop  offset="1" style="stop-color:#A459A0"/>
		</linearGradient>
		<ellipse class="st31" cx="52.9" cy="82.7" rx="15.7" ry="6.6"/>
		<g>
			<linearGradient id="SVGID_31_" gradientUnits="userSpaceOnUse" x1="52.8783" y1="5.276" x2="52.8783" y2="95.3155">
				<stop  offset="0" style="stop-color:#764595"/>
				<stop  offset="1" style="stop-color:#9A4795"/>
			</linearGradient>
			<path class="st32" d="M52.9,77.4c-7.6,0-13.7,2.4-13.7,5.3c0,2.9,6.1,5.3,13.7,5.3s13.7-2.4,13.7-5.3
				C66.6,79.8,60.4,77.4,52.9,77.4z M52.9,87.4c-6.7,0-12.2-2.1-12.2-4.7c0-2.6,5.5-4.7,12.2-4.7s12.2,2.1,12.2,4.7
				C65.1,85.3,59.6,87.4,52.9,87.4z"/>
			<linearGradient id="SVGID_32_" gradientUnits="userSpaceOnUse" x1="52.8783" y1="5.276" x2="52.8783" y2="95.3155">
				<stop  offset="0" style="stop-color:#764595"/>
				<stop  offset="1" style="stop-color:#9A4795"/>
			</linearGradient>
			<path class="st33" d="M52.4,86.4v-0.6c-2.1-0.1-4-0.4-5.6-1l1.7-0.8c1.3,0.4,2.6,0.7,4,0.8V83c-1.7-0.2-3-0.4-3.8-0.6
				c-0.8-0.3-1.2-0.6-1.2-1.2s0.5-0.9,1.4-1.3c0.9-0.3,2.1-0.5,3.6-0.5V79h1.5v0.5c1.7,0,3.3,0.3,4.8,0.7l-1.5,0.8
				c-1-0.3-2.1-0.4-3.3-0.5v1.7h0.1c1.8,0.2,3,0.4,3.9,0.6c0.8,0.3,1.2,0.7,1.2,1.2c0,0.5-0.5,0.9-1.4,1.3c-0.9,0.3-2.2,0.5-3.7,0.5
				v0.6H52.4z M50.8,80.6c-0.4,0.1-0.6,0.3-0.6,0.5c0,0.2,0.2,0.4,0.5,0.5c0.3,0.1,0.9,0.2,1.7,0.3v-1.5
				C51.7,80.4,51.2,80.5,50.8,80.6z M55.6,84.5c0.4-0.1,0.6-0.3,0.6-0.5c0-0.2-0.2-0.4-0.5-0.5c-0.3-0.1-1-0.2-1.9-0.3v1.6
				C54.6,84.7,55.1,84.7,55.6,84.5z"/>
		</g>
		<linearGradient id="SVGID_33_" gradientUnits="userSpaceOnUse" x1="52.8783" y1="5.276" x2="52.8783" y2="95.3155">
			<stop  offset="0" style="stop-color:#764595"/>
			<stop  offset="1" style="stop-color:#9A4795"/>
		</linearGradient>
		<path class="st34" d="M68.6,81.5c0,3.6-7,6.6-15.7,6.6s-15.7-3-15.7-6.6v-5.4h31.4V81.5z"/>
		<linearGradient id="SVGID_34_" gradientUnits="userSpaceOnUse" x1="52.877" y1="4.4426" x2="52.877" y2="96.944">
			<stop  offset="0" style="stop-color:#8457A0"/>
			<stop  offset="1" style="stop-color:#A459A0"/>
		</linearGradient>
		<ellipse class="st35" cx="52.9" cy="76.1" rx="15.7" ry="6.6"/>
		<g>
			<linearGradient id="SVGID_35_" gradientUnits="userSpaceOnUse" x1="52.8783" y1="5.276" x2="52.8783" y2="95.3155">
				<stop  offset="0" style="stop-color:#764595"/>
				<stop  offset="1" style="stop-color:#9A4795"/>
			</linearGradient>
			<path class="st36" d="M52.9,70.8c-7.6,0-13.7,2.4-13.7,5.3c0,2.9,6.1,5.3,13.7,5.3s13.7-2.4,13.7-5.3
				C66.6,73.2,60.4,70.8,52.9,70.8z M52.9,80.8c-6.7,0-12.2-2.1-12.2-4.7c0-2.6,5.5-4.7,12.2-4.7s12.2,2.1,12.2,4.7
				C65.1,78.7,59.6,80.8,52.9,80.8z"/>
			<linearGradient id="SVGID_36_" gradientUnits="userSpaceOnUse" x1="52.8783" y1="5.276" x2="52.8783" y2="95.3155">
				<stop  offset="0" style="stop-color:#764595"/>
				<stop  offset="1" style="stop-color:#9A4795"/>
			</linearGradient>
			<path class="st37" d="M52.4,79.8v-0.6c-2.1-0.1-4-0.4-5.6-1l1.7-0.8c1.3,0.4,2.6,0.7,4,0.8v-1.7c-1.7-0.2-3-0.4-3.8-0.6
				c-0.8-0.3-1.2-0.6-1.2-1.2c0-0.5,0.5-0.9,1.4-1.3c0.9-0.3,2.1-0.5,3.6-0.5v-0.4h1.5v0.5c1.7,0,3.3,0.3,4.8,0.7l-1.5,0.8
				c-1-0.3-2.1-0.4-3.3-0.5v1.7h0.1c1.8,0.2,3,0.4,3.9,0.6c0.8,0.3,1.2,0.7,1.2,1.2c0,0.5-0.5,0.9-1.4,1.3c-0.9,0.3-2.2,0.5-3.7,0.5
				v0.6H52.4z M50.8,74.1c-0.4,0.1-0.6,0.3-0.6,0.5c0,0.2,0.2,0.4,0.5,0.5c0.3,0.1,0.9,0.2,1.7,0.3v-1.5
				C51.7,73.9,51.2,73.9,50.8,74.1z M55.6,78c0.4-0.1,0.6-0.3,0.6-0.5c0-0.2-0.2-0.4-0.5-0.5c-0.3-0.1-1-0.2-1.9-0.3v1.6
				C54.6,78.2,55.1,78.1,55.6,78z"/>
		</g>
	</g>
</g>
</svg>
