<?xml version="1.0" encoding="utf-8"?>
<!-- Generator: Adobe Illustrator 22.1.0, SVG Export Plug-In . SVG Version: 6.00 Build 0)  -->
<svg version="1.1" id="Слой_1" xmlns="http://www.w3.org/2000/svg" xmlns:xlink="http://www.w3.org/1999/xlink" x="0px" y="0px"
	 viewBox="0 0 100 100" style="enable-background:new 0 0 100 100;" xml:space="preserve">
<style type="text/css">
	.st0{fill:url(#SVGID_1_);}
	.st1{fill:url(#SVGID_2_);}
	.st2{fill:url(#SVGID_3_);}
	.st3{fill:url(#SVGID_4_);}
	.st4{fill:url(#SVGID_5_);}
	.st5{fill:url(#SVGID_6_);}
	.st6{fill:url(#SVGID_7_);}
	.st7{fill:url(#SVGID_8_);}
	.st8{fill:url(#SVGID_9_);}
	.st9{fill:url(#SVGID_10_);}
	.st10{fill:url(#SVGID_11_);}
	.st11{fill:url(#SVGID_12_);}
	.st12{fill:url(#SVGID_13_);}
	.st13{fill:url(#SVGID_14_);}
</style>
<g>
	<g>
		<g>
			<linearGradient id="SVGID_1_" gradientUnits="userSpaceOnUse" x1="22.8305" y1="4.6093" x2="22.8305" y2="97.2784">
				<stop  offset="0" style="stop-color:#D6C7DF"/>
				<stop  offset="1" style="stop-color:#E1C8DF"/>
			</linearGradient>
			<polygon class="st0" points="34.6,46.2 17.5,66.2 11,60.8 11,94.7 34.6,94.7 			"/>
			<linearGradient id="SVGID_2_" gradientUnits="userSpaceOnUse" x1="16.9289" y1="3.276" x2="16.9289" y2="96.0601">
				<stop  offset="0" style="stop-color:#BBA2CA"/>
				<stop  offset="1" style="stop-color:#CDA3CA"/>
			</linearGradient>
			<polygon class="st1" points="22.8,60 17.5,66.2 11,60.8 11,94.7 22.8,94.7 			"/>
		</g>
		<g>
			<linearGradient id="SVGID_3_" gradientUnits="userSpaceOnUse" x1="51.13" y1="4.6093" x2="51.13" y2="97.2784">
				<stop  offset="0" style="stop-color:#D6C7DF"/>
				<stop  offset="1" style="stop-color:#E1C8DF"/>
			</linearGradient>
			<polygon class="st2" points="62.9,52.8 55.6,61.2 39.3,45 39.3,94.7 62.9,94.7 			"/>
			<linearGradient id="SVGID_4_" gradientUnits="userSpaceOnUse" x1="45.2284" y1="3.9426" x2="45.2284" y2="95.9644">
				<stop  offset="0" style="stop-color:#BBA2CA"/>
				<stop  offset="1" style="stop-color:#CDA3CA"/>
			</linearGradient>
			<polygon class="st3" points="51.1,56.7 39.3,45 39.3,94.7 51.1,94.7 			"/>
		</g>
		<g>
			<linearGradient id="SVGID_5_" gradientUnits="userSpaceOnUse" x1="79.4295" y1="4.6093" x2="79.4295" y2="97.2784">
				<stop  offset="0" style="stop-color:#D6C7DF"/>
				<stop  offset="1" style="stop-color:#E1C8DF"/>
			</linearGradient>
			<polygon class="st4" points="91.2,32.6 80.5,32.6 67.6,47.3 67.6,94.7 91.2,94.7 			"/>
			<linearGradient id="SVGID_6_" gradientUnits="userSpaceOnUse" x1="73.5279" y1="3.276" x2="73.5279" y2="96.0601">
				<stop  offset="0" style="stop-color:#BBA2CA"/>
				<stop  offset="1" style="stop-color:#CDA3CA"/>
			</linearGradient>
			<polygon class="st5" points="79.4,33.8 67.6,47.3 67.6,94.7 79.4,94.7 			"/>
		</g>
		<linearGradient id="SVGID_7_" gradientUnits="userSpaceOnUse" x1="26.9802" y1="4.4426" x2="26.9802" y2="96.944">
			<stop  offset="0" style="stop-color:#8457A0"/>
			<stop  offset="1" style="stop-color:#A459A0"/>
		</linearGradient>
		<polygon class="st6" points="42.9,32.8 17.5,62.4 11,56.8 36.9,26.7 		"/>
		<linearGradient id="SVGID_8_" gradientUnits="userSpaceOnUse" x1="69.8269" y1="4.4426" x2="69.8269" y2="96.944">
			<stop  offset="0" style="stop-color:#8457A0"/>
			<stop  offset="1" style="stop-color:#A459A0"/>
		</linearGradient>
		<polygon class="st7" points="89.6,18 56.5,56.6 50,51 83.1,12.4 		"/>
		<linearGradient id="SVGID_9_" gradientUnits="userSpaceOnUse" x1="46.4017" y1="4.4426" x2="46.4017" y2="96.944">
			<stop  offset="0" style="stop-color:#8457A0"/>
			<stop  offset="1" style="stop-color:#A459A0"/>
		</linearGradient>
		<polygon class="st8" points="55.6,57.6 31.6,33.5 37.6,27.5 61.2,51.1 		"/>
		<linearGradient id="SVGID_10_" gradientUnits="userSpaceOnUse" x1="25.464" y1="5.276" x2="25.464" y2="95.3155">
			<stop  offset="0" style="stop-color:#764595"/>
			<stop  offset="1" style="stop-color:#9A4795"/>
		</linearGradient>
		<polygon class="st9" points="39.9,29.8 14.3,59.6 11,56.8 36.9,26.7 		"/>
		<linearGradient id="SVGID_11_" gradientUnits="userSpaceOnUse" x1="69.3754" y1="5.276" x2="69.3754" y2="95.3155">
			<stop  offset="0" style="stop-color:#764595"/>
			<stop  offset="1" style="stop-color:#9A4795"/>
		</linearGradient>
		<polygon class="st10" points="86.4,15.2 55.4,51.3 52.4,48.3 83.1,12.4 		"/>
		<linearGradient id="SVGID_12_" gradientUnits="userSpaceOnUse" x1="46.3973" y1="5.276" x2="46.3973" y2="95.3155">
			<stop  offset="0" style="stop-color:#764595"/>
			<stop  offset="1" style="stop-color:#9A4795"/>
		</linearGradient>
		<polygon class="st11" points="55.4,51.3 34.6,30.5 37.6,27.5 58.2,48 		"/>
		<linearGradient id="SVGID_13_" gradientUnits="userSpaceOnUse" x1="84.3173" y1="5.276" x2="84.3173" y2="95.3155">
			<stop  offset="0" style="stop-color:#764595"/>
			<stop  offset="1" style="stop-color:#9A4795"/>
		</linearGradient>
		<polygon class="st12" points="72.9,13.7 81.4,21.1 95.7,4.7 		"/>
		<linearGradient id="SVGID_14_" gradientUnits="userSpaceOnUse" x1="88.5312" y1="4.4426" x2="88.5312" y2="96.944">
			<stop  offset="0" style="stop-color:#8457A0"/>
			<stop  offset="1" style="stop-color:#A459A0"/>
		</linearGradient>
		<polygon class="st13" points="95.7,4.7 81.4,21.1 89.8,28.6 		"/>
	</g>
</g>
</svg>
